<svg id="Layer_1" data-name="Layer 1" xmlns="http://www.w3.org/2000/svg" viewBox="0 0 1920 1080"><defs><style>.cls-1{fill:#0156d9;}.cls-2{fill:#fff;}.cls-3{fill:#fdf98b;}</style></defs><rect class="cls-1" width="1920" height="1080"/><path class="cls-2" d="M1694.33,459.22c-52.74,3.56-123.85,56.59-141.33,72.59s-29.33,19.86-51,21.63-58.37-12.14-91.26-28.14-86.82-39.41-168-53-192.3-4.15-222.52,4.15c-8.88,2.44-20,5.75-32.79,9.72-5.7,1.77-11.73,3.68-18,5.7-10.72,3.45-22.23,7.22-34.25,11.24q-7.35,2.46-15,5c-14.45,4.9-29.45,10.09-44.57,15.41-58.08,20.44-60.15,29.92-60.15,29.92-2,3.71,5.26,5.56,9.92,4.89s9.93-1.33,16.89,1.41,23,7.78,23,7.78c38.51,13.63,48.14,35.11,48.14,35.11-14.51,2.22-49.63-12-75.4-17.93-15-3.45-19.59-.81-20.77,2a4.55,4.55,0,0,0,1.44,5.24c51.69,41.58,119.77,45.37,119.77,45.37,83.85,2.66,84.74-57.49,84.74-57.49,3.56-48.59-43-67.25-43-67.25,54.81,4.14,54.81,64.59,54.81,64.59-7.11,81.78-95.4,66.66-95.4,66.66,49.77,21.34,144.59,25.49,240.89,28.45s196.44-31.11,221.92-40,59.85-20.45,95.71-17.78,66.07,35.26,66.07,35.26c72.89,62.52,130.07,67.56,130.07,67.56C1658.19,679.67,1632.7,589,1632.7,589,1652.56,510.78,1694.33,459.22,1694.33,459.22ZM1097.22,638.56s-36.66.39-54.29-21.47a5,5,0,0,1,1-7.34c12.22-8.28,52.24-30.19,125-22.75C1169,587,1161.44,638.56,1097.22,638.56Z"/><path class="cls-2" d="M1068.78,675s14.59,86.15,97.26,111.63c0,0,1.18-42.67-3.26-63.7s-18.69-40.09-24.89-46.23C1137.89,676.7,1099.67,676.78,1068.78,675Z"/><path class="cls-2" d="M1310.11,667.22S1380,650.63,1417,632.56c0,0,19.33,16.44,46.67,16,0,0-57,53.33-50.23,105.18C1413.44,753.74,1357.59,728,1310.11,667.22Z"/><path class="cls-2" d="M1307.89,480.11s38.44,11.78,53.11,17.56,47.56,19.55,58,26.89c0,0,12.89-14.89,44.67-12.67,0,0-57.63-48.82-49.63-119.63C1414,392.26,1363.81,416.26,1307.89,480.11Z"/><path class="cls-2" d="M1152.84,378.61a3.5,3.5,0,0,1,6.09,3.45l-43.6,77c9.18-.23,18-.28,26.49-.2l38-67.06a3.5,3.5,0,0,1,6.09,3.45L1149.8,459q12.21.26,23.34.85L1203,407.06a3.5,3.5,0,0,1,6.09,3.45l-28.19,49.76c7.77.5,15.11,1.11,22,1.79l22.2-39.19a3.5,3.5,0,0,1,6.09,3.45l-20.7,36.54c7.86.87,15.09,1.83,21.66,2.82l15-26.52a3.5,3.5,0,0,1,6.1,3.45l-13.73,24.24c7.74,1.28,14.4,2.57,19.93,3.75l6.56-11.59a3.5,3.5,0,1,1,6.09,3.45l-5.51,9.74c8.27,1.95,12.57,3.32,12.57,3.32-3.87-4.74-4.15-22.82-4.15-22.82-21,3.56-18.37-21.92-18.37-21.92-23.11,6.22-20.44-16.89-20.44-16.89-26.37,8-22.82-16.3-22.82-16.3-24.29,11.26-24.29-13.92-24.29-13.92-29,11.85-24.89-14.52-24.89-14.52-32.59,13-26.37-24.3-26.37-24.3L1079.81,460.7q14.12-1,27.33-1.41Z"/><path class="cls-2" d="M750.33,654.33c-32.44,72-116,76.89-116,76.89h-319c-19.56,0-91.26-28.74-91.26-28.74s51.56-31.41,83.56-34.37,112.89,0,112.89,0S608.11,661.07,635,540V509.89s43.93,7,89.26-38.73C734.34,485,745,498.88,749.44,508.11,758.78,527.66,782.78,582.33,750.33,654.33Z"/><path d="M993.59,313.15c-51,16-141.92,25.78-167.85,28.15s-21.18,7.11-37.63,15.26-28.89,3.11-54.81,10.66-30.74,32.89-30.74,32.89V431c0,9.15,10.46,24.67,21.7,40.16C678.93,516.87,635,509.89,635,509.89V540C608.11,661.07,420.56,668.11,420.56,668.11s-80.89-3-112.89,0-83.56,34.37-83.56,34.37H116.85c32.59-64.29,115.26-95.11,126.52-99.55s22.82-18.08,36.15-32,22.22-26.08,99-61S574.63,477.3,574.63,477.3s-1.78-70.23,0-91.26,4.44-58.37,19.56-86.23,39.4-50.07,58.66-56.88,85-5.63,107.26-4.74,35.85,8.59,49.19,24.29,35,23.11,48.89,22.22,44.74,2.08,65.77,6.23S993.59,313.15,993.59,313.15Z"/><circle class="cls-3" cx="762.04" cy="288.11" r="12.89"/><rect class="cls-2" x="580.56" y="398.1" width="4" height="52.45"/><rect class="cls-2" x="587.67" y="394.56" width="4" height="47"/><rect class="cls-2" x="594.78" y="391" width="4" height="45"/><rect class="cls-2" x="602.56" y="388.33" width="4" height="44.67"/><rect class="cls-2" x="611.11" y="385.33" width="4" height="44.89"/><rect class="cls-2" x="620.44" y="385.89" width="4" height="44.33"/><rect class="cls-2" x="629.67" y="389.89" width="4" height="40.33"/><rect class="cls-2" x="638.89" y="391.67" width="4" height="38.56"/><rect class="cls-2" x="649.11" y="394.56" width="4" height="36.22"/><rect class="cls-2" x="657.89" y="398.1" width="4" height="33.9"/><rect class="cls-2" x="667" y="402.89" width="4" height="30.11"/><rect class="cls-2" x="676.78" y="405.67" width="4" height="29.11"/><rect class="cls-2" x="685.44" y="408.78" width="4" height="27.22"/><rect class="cls-2" x="693.22" y="410.67" width="4" height="25.33"/><rect class="cls-2" x="590.22" y="443.22" width="4" height="6.11"/><rect class="cls-2" x="598.11" y="436" width="4" height="11.56"/><rect class="cls-2" x="606" y="433" width="4" height="13.28"/><rect class="cls-2" x="614.56" y="433" width="4" height="13.28"/><rect class="cls-2" x="623.44" y="432.44" width="4" height="13.83"/><rect class="cls-2" x="633" y="432.44" width="4" height="13.83"/><rect class="cls-2" x="642.33" y="432.44" width="4" height="13.44"/><rect class="cls-2" x="652.11" y="433.44" width="4" height="12.44"/><rect class="cls-2" x="661.78" y="434.78" width="4" height="10.56"/><rect class="cls-2" x="671.22" y="436" width="4" height="8.78"/><rect class="cls-2" x="680.67" y="437" width="4" height="7"/><rect class="cls-2" x="689.22" y="437" width="4" height="6.22"/><rect class="cls-2" x="696.44" y="437" width="4" height="4.78"/><path class="cls-2" d="M387.92,513.68A102.68,102.68,0,0,0,375,523.54c-5.59-1.52-9-2.1-9-2.1,5.57-3.18,11.38-6.11,17.37-8.82C384.58,512.86,386.1,513.21,387.92,513.68Z"/><path class="cls-2" d="M404.88,519.35A92.84,92.84,0,0,0,391.72,529c-4.27-1.62-8.2-2.93-11.62-4a68.76,68.76,0,0,1,12.09-10.15A134.57,134.57,0,0,1,404.88,519.35Z"/><path class="cls-2" d="M421,527.26a108.44,108.44,0,0,0-12.15,9.25c-4.74-2.39-9.32-4.42-13.62-6.15A92.44,92.44,0,0,1,408.65,521,132.42,132.42,0,0,1,421,527.26Z"/><path class="cls-2" d="M437.22,538.39c-5.42,3.31-9.32,6-11.73,7.74-3.84-2.54-7.69-4.84-11.48-6.91a77.12,77.12,0,0,1,11.4-9.29A122.92,122.92,0,0,1,437.22,538.39Z"/><path class="cls-2" d="M455.19,556.09c-4.14,2.36-7.45,4.32-9.82,5.76a140.39,140.39,0,0,0-14.85-12.26,108.7,108.7,0,0,1,10.59-7.89q2.88,2.53,5.67,5.37Q451.27,551.63,455.19,556.09Z"/><path class="cls-2" d="M465.19,568.2h0c-2.26,1.57-6,4.11-8.64,5.79-.68-.82-1-1.3-1-1.3q-3.31-4-6.86-7.6c2-1.26,5.12-3.21,9.4-5.7C460.63,562.41,463,565.35,465.19,568.2Z"/><path class="cls-2" d="M422.81,509.66c-5.58,2.65-10.32,5.18-14.32,7.52a158,158,0,0,0-19.6-7q8.31-3.53,17-6.51h0A112.36,112.36,0,0,1,422.81,509.66Z"/><path class="cls-2" d="M483.5,485.72q-8.72,1.23-17.74,2.81c1.34.69,3.27,1.73,5.63,3.15q7.46-2.18,15.78-4.29A36.12,36.12,0,0,0,483.5,485.72Zm48.7-4.8c-5.08.29-10.49.67-16.17,1.15,1,.92,3.3,3.13,6.33,6.13q6.93-1.53,14.36-2.94C535,483.58,533.47,482.12,532.2,480.92ZM498.6,514l14.07-4.85Q505.25,511.55,498.6,514Z"/><path class="cls-2" d="M556.45,481.87q-7.86,1.22-15.22,2.55c-1.56-1.52-2.88-2.8-3.92-3.78,6.43-.33,12.22-.53,17.23-.64Z"/><path class="cls-2" d="M583,487.72q-6.63,1.11-13,2.35c-4.46-4.48-8.23-8-10.63-10.16,9.82-.14,15.57,0,15.57,0C577.64,482.38,580.33,485,583,487.72Z"/><path class="cls-2" d="M593.43,499.44q-5.92,1.5-11.72,3.14c-3-3.36-5.85-6.48-8.57-9.3q6.18-1.29,12.68-2.52C588.43,493.58,591,496.5,593.43,499.44Z"/><path class="cls-2" d="M603.37,512q-5.48,1.66-11,3.53c-2.56-3.39-5.21-6.67-7.86-9.78q5.55-1.75,11.32-3.47C598.44,505.56,601,508.83,603.37,512Z"/><path class="cls-2" d="M613.46,526.14c-3.44,1-7.29,2.28-11.44,3.76-2.22-3.76-4.68-7.47-7.27-11.07q5.41-1.85,11-3.65C608.6,519.12,611.21,522.84,613.46,526.14Z"/><path class="cls-2" d="M622.44,540c-4,1.18-8.51,2.69-13.32,4.45a84,84,0,0,0-4.47-9.85c3.9-1.38,7.83-2.74,11.76-4.05C620.22,536.3,622.44,540,622.44,540Z"/><path class="cls-2" d="M605.51,545.79c-4.07,1.54-8.34,3.23-12.74,5-1.65-3.3-3.48-6.59-5.42-9.85,4.29-1.64,8.64-3.26,13-4.84C602.24,539.34,604,542.57,605.51,545.79Z"/><path class="cls-2" d="M588.81,552.46c-4,1.66-8,3.39-12.16,5.18-1.86-3.09-4-6.44-6.35-9.93q6.42-2.61,13.07-5.19Q586.31,547.45,588.81,552.46Z"/><path class="cls-2" d="M572.7,559.36c-4.7,2.06-9.44,4.16-14.13,6.27-1.68-2.89-3.82-6.4-6.35-10.35q7-3,14.32-6C568.79,552.8,570.84,556.18,572.7,559.36Z"/><path class="cls-2" d="M518.07,489.16q-7.94,1.81-15.22,3.77c-4.18-4.05-7.49-7-9.24-8.54,5.38-.66,10.62-1.23,15.69-1.71h0A63.72,63.72,0,0,1,518.07,489.16Z"/><path class="cls-2" d="M554.63,567.41c-4.67,2.11-9.29,4.22-13.76,6.26-1.54-2.36-3.89-5.95-6.84-10.37q6.56-3,13.71-6.09C550.73,561.59,553.1,565.12,554.63,567.41Z"/><path class="cls-2" d="M535.36,576.19l-12.27,5.61c-1.79-3.26-3.93-6.77-6.38-10.49,4-1.89,8.27-3.88,12.8-6C532.05,569.69,533.84,573.15,535.36,576.19Z"/><path class="cls-2" d="M465.3,493.22q-9,2.79-16.77,5.59c-4.3-2.33-7.83-4-10-4.93,6.33-1.54,12.66-2.91,18.94-4.13h0A68.09,68.09,0,0,1,465.3,493.22Z"/><path class="cls-2" d="M445,500.11c-6.31,2.35-12,4.68-17,6.95a92.38,92.38,0,0,0-15.79-5.75q10.35-3.37,20.9-6.07h0A73.43,73.43,0,0,1,445,500.11Z"/><path class="cls-2" d="M504.59,590l-1.07.45a34.12,34.12,0,0,1-4.72,1.6h0a38.93,38.93,0,0,1-11.24-6.41c2.22-1.15,5.64-2.9,10.06-5.1C500.65,584.6,503,587.79,504.59,590Z"/><path class="cls-2" d="M482.59,561.38c-5.71,2.77-10.06,4.94-12.64,6.24-2.73-3.16-5.6-6.53-8.68-10.06,3.56-2,7.74-4.32,12.55-6.84Q478.52,556.35,482.59,561.38Z"/><path class="cls-2" d="M495,577.14c-4.91,2.38-8.73,4.26-11.09,5.42a144.87,144.87,0,0,1-10.78-11.28c2.39-1.28,6.57-3.49,12.28-6.39C489.05,569.45,492.25,573.55,495,577.14Z"/><path class="cls-2" d="M518.71,583.78c-3.63,1.64-7,3.15-10.08,4.5-1.86-2.46-4.28-5.65-7.32-9.55,3.34-1.64,7.12-3.47,11.27-5.45C515.12,577.44,517.17,581,518.71,583.78Z"/><path class="cls-2" d="M495.48,510.71l-9.41-8.61A120.23,120.23,0,0,1,495.48,510.71Z"/><path class="cls-2" d="M476.61,500.88c-5.73,2-11,4-16,6-3.13-2.14-6.17-4-9-5.65,5.09-1.89,10.59-3.82,16.54-5.77A96.2,96.2,0,0,1,476.61,500.88Z"/><path class="cls-2" d="M523.33,522.91c-4.56,1.87-9,3.76-13.25,5.63l-2.86-4A119.63,119.63,0,0,0,498.6,514l14.07-4.85h0q2,2.43,4.17,5.2C519,517.18,521.2,520.05,523.33,522.91Z"/><path class="cls-2" d="M509.7,505.72q-7.43,2.47-14.22,5a120.23,120.23,0,0,0-9.41-8.61q7.17-2.39,15.23-4.74A107.74,107.74,0,0,1,509.7,505.72Z"/><path class="cls-2" d="M542.51,515.4c-4.94,1.82-9.75,3.69-14.43,5.57l-1-1.3c-3.27-4.21-6.66-8.22-10-11.94q7.21-2.28,15.13-4.52C535.36,506.7,538.79,510.74,542.51,515.4Z"/><path class="cls-2" d="M564,545.24c-4.71,2-9.46,4.15-14.18,6.26-2.53-3.86-5.34-8-8.38-12.37q7-2.91,14.44-5.89Q560.23,539.48,564,545.24Z"/><path class="cls-2" d="M553.45,529.89q-7.32,2.94-14.39,5.92h0c-2.57-3.63-5.3-7.36-8.11-11.09q7-2.78,14.5-5.58,1.95,2.52,4,5.27T553.45,529.89Z"/><path class="cls-2" d="M529.07,499.78Q521.24,502,514,504.32h0c-2.8-3-5.51-5.82-8-8.31q7.25-2,15.22-4.06C523.54,494.1,526.16,496.69,529.07,499.78Z"/><path class="cls-2" d="M546.48,495.21c-4.74,1.14-9.34,2.34-13.79,3.56-2.64-2.81-5.23-5.46-7.56-7.81q6.74-1.66,14-3.29C541.37,489.89,543.84,492.42,546.48,495.21Z"/><path class="cls-2" d="M580.7,538.16c-4.28,1.76-8.68,3.61-13.13,5.52-2.68-3.89-5.51-7.88-8.34-11.78q6.64-2.62,13.64-5.24C575.59,530.4,578.22,534.25,580.7,538.16Z"/><path class="cls-2" d="M570.39,523.31q-6.84,2.57-13.59,5.24c-2.73-3.73-5.42-7.34-7.94-10.67q6.52-2.4,13.45-4.81C565,516.35,567.74,519.78,570.39,523.31Z"/><path class="cls-2" d="M559.31,509.48q-6.78,2.26-13.31,4.64c-3-3.88-6.54-8-10.13-11.92q6.64-1.81,13.8-3.59C552.75,502,556,505.6,559.31,509.48Z"/><path class="cls-2" d="M587.57,517.14c-4.4,1.51-8.82,3.08-13.23,4.7-2.65-3.51-5.35-6.9-8-10.14q6.54-2.24,13.44-4.44C582.36,510.41,585,513.72,587.57,517.14Z"/><path class="cls-2" d="M597.57,531.53c-4.11,1.53-8.44,3.22-13,5h0c-2.46-3.87-5.08-7.67-7.78-11.37,4.31-1.6,8.72-3.18,13.2-4.74C592.66,524.06,595.2,527.77,597.57,531.53Z"/><path class="cls-2" d="M577,504q-6.93,2-13.65,4.21c-3.23-3.8-6.4-7.35-9.39-10.59q7-1.68,14.48-3.3C571.12,497.21,574,500.46,577,504Z"/><path class="cls-2" d="M437.67,517.4c-5.15,2.71-9.58,5.3-13.35,7.69-4.1-2.37-8.16-4.44-12-6.21,4-2.27,8.83-4.75,14.5-7.39C430.24,513.15,433.9,515.1,437.67,517.4Z"/><path class="cls-2" d="M457.69,507.82c-5.72,2.39-10.89,4.78-15.53,7.09A111.8,111.8,0,0,0,431.87,509c5-2.21,10.55-4.51,16.78-6.88A102.18,102.18,0,0,1,457.69,507.82Z"/><path class="cls-2" d="M497.71,494.33q-8.19,2.28-15.53,4.68c-2.85-2.17-5.52-4-7.9-5.54q7.32-2.31,15.48-4.65A67.41,67.41,0,0,1,497.71,494.33Z"/><path class="cls-2" d="M453.73,529.1c-5,2.59-9.32,5-13.09,7.24a113.44,113.44,0,0,0-11.93-8.6c3.67-2.35,8-4.91,13.25-7.61A120.05,120.05,0,0,1,453.73,529.1Z"/><path class="cls-2" d="M471.85,520.35c-5.25,2.36-10.08,4.67-14.49,6.89a128.07,128.07,0,0,0-11.42-9.11c4.55-2.24,9.65-4.56,15.38-6.92A127.64,127.64,0,0,1,471.85,520.35Z"/><path class="cls-2" d="M490.37,512.66q-7.89,3-14.84,6.08a114.32,114.32,0,0,0-10.73-8.95c4.85-1.93,10.11-3.89,15.83-5.86A117,117,0,0,1,490.37,512.66Z"/><path class="cls-2" d="M565.36,491q-7.5,1.53-14.57,3.19h0c-2.66-2.82-5.11-5.33-7.26-7.48q7.1-1.56,14.7-3.07C560.24,485.65,562.67,488.14,565.36,491Z"/><path class="cls-2" d="M509.7,505.72l-14.22,5Q502.28,508.21,509.7,505.72Z"/><path class="cls-2" d="M471,547.4c-4.72,2.49-9,4.81-12.65,6.88-3.22-3.61-6.66-7.36-10.42-11.21-1.17-1.2-2.37-2.35-3.59-3.48,3.56-2.25,7.8-4.74,12.78-7.41a114.85,114.85,0,0,1,8.44,8.82Q468.41,544.29,471,547.4Z"/><path class="cls-2" d="M488.21,538.69c-4.89,2.38-9.45,4.69-13.67,6.87l-3.32-4a139.48,139.48,0,0,0-10.53-11.27c4.27-2.19,9-4.49,14.3-6.84q3,3.06,6,6.56Q484.78,534.41,488.21,538.69Z"/><path class="cls-2" d="M512.67,509.13,498.6,514Q505.26,511.55,512.67,509.13Z"/><path class="cls-2" d="M499.38,553.41c-4.87,2.26-9.32,4.37-13.25,6.26q-4.06-5-8.82-10.76c4.13-2.13,8.67-4.4,13.63-6.77h0C494,546,496.78,549.79,499.38,553.41Z"/><path class="cls-2" d="M510.38,569.75c-4.26,2-8.2,3.92-11.71,5.61q-4.2-5.37-9.74-12.24c3.77-1.88,8.08-4,12.87-6.28C505,561.48,507.9,565.83,510.38,569.75Z"/><path class="cls-2" d="M505.56,530.56c-4.95,2.22-9.66,4.43-14.14,6.58h0q-3.6-4.56-7.45-9.33-2.52-3.12-5.27-5.95c4.57-2,9.49-4,14.8-6,2.92,3.12,5.88,6.59,8.84,10.45Z"/><path class="cls-2" d="M516.57,545.56c-4.84,2.16-9.45,4.26-13.76,6.25q-4.1-5.41-8.65-11.2,6.61-3.11,14.13-6.42C511.4,538.36,514.14,542.13,516.57,545.56Z"/><path class="cls-2" d="M527.35,561.76c-4.51,2.1-8.86,4.15-13,6.09-2.72-4-5.76-8.24-9.07-12.68,4.21-2,8.74-4.08,13.59-6.26C522.36,553.9,525.11,558.12,527.35,561.76Z"/><path class="cls-2" d="M545.23,553.55c-4.6,2.08-9.15,4.16-13.56,6.21-2.57-3.82-5.47-8.12-8.62-12.7q6.45-2.88,13.53-5.89C539.74,545.62,542.65,549.81,545.23,553.55Z"/><path class="cls-2" d="M534.22,537.86c-4.63,2-9.14,3.93-13.48,5.85-2.55-3.69-5.24-7.54-8-11.45q6.39-2.76,13.38-5.6C528.92,530.48,531.64,534.24,534.22,537.86Z"/><circle class="cls-2" cx="240.81" cy="642.07" r="4"/><circle class="cls-2" cx="240.81" cy="627.19" r="4"/><circle class="cls-2" cx="256.26" cy="631.19" r="4"/><circle class="cls-2" cx="272.37" cy="637.52" r="4"/><circle class="cls-2" cx="268.37" cy="619.63" r="4"/><circle class="cls-2" cx="252.26" cy="615.63" r="4"/><circle class="cls-2" cx="257.04" cy="602.85" r="4"/><circle class="cls-2" cx="270.26" cy="603.52" r="4"/><circle class="cls-2" cx="271.15" cy="590.96" r="4"/><circle class="cls-2" cx="287.04" cy="593.52" r="4"/><circle class="cls-2" cx="287.04" cy="610.19" r="4"/><circle class="cls-2" cx="288.37" cy="626.19" r="4"/><circle class="cls-2" cx="307.59" cy="619.19" r="4"/><circle class="cls-2" cx="301.15" cy="599.52" r="4"/><circle class="cls-2" cx="287.04" cy="578.63" r="4"/><circle class="cls-2" cx="305.15" cy="568.3" r="4"/><circle class="cls-2" cx="309.15" cy="555.52" r="4"/><circle class="cls-2" cx="305.15" cy="583.91" r="4"/><circle class="cls-2" cx="320.04" cy="603.52" r="4"/><circle class="cls-2" cx="321.59" cy="585.96" r="4"/><circle class="cls-2" cx="321.59" cy="571.41" r="4"/><circle class="cls-2" cx="324.7" cy="555.52" r="4"/><circle class="cls-2" cx="328.7" cy="544" r="4"/><circle class="cls-2" cx="352.37" cy="532.78" r="4"/><circle class="cls-2" cx="346.04" cy="545.11" r="4"/><circle class="cls-2" cx="341.26" cy="561.22" r="4"/><circle class="cls-2" cx="342.04" cy="576.3" r="4"/><circle class="cls-2" cx="338.04" cy="592.96" r="4"/><circle class="cls-2" cx="328.7" cy="623.19" r="4"/><circle class="cls-2" cx="341.26" cy="607.52" r="4"/><circle class="cls-2" cx="368.24" cy="532.78" r="4"/><circle class="cls-2" cx="366.04" cy="548.33" r="4"/><circle class="cls-2" cx="385.89" cy="555.52" r="4"/><circle class="cls-2" cx="404.88" cy="561.22" r="4"/><circle class="cls-2" cx="417.64" cy="570" r="4"/><circle class="cls-2" cx="363.57" cy="563.2" r="4"/><circle class="cls-2" cx="364.24" cy="578.08" r="4"/><circle class="cls-2" cx="381.89" cy="571.28" r="4"/><circle class="cls-2" cx="357.3" cy="595.52" r="4"/><circle class="cls-2" cx="358.63" cy="614.19" r="4"/><circle class="cls-2" cx="373.3" cy="602.85" r="4"/><circle class="cls-2" cx="383.52" cy="588.96" r="4"/><circle class="cls-2" cx="402.19" cy="578.08" r="4"/><circle class="cls-2" cx="404.1" cy="598.23" r="4"/><circle class="cls-2" cx="387.57" cy="613.34" r="4"/><circle class="cls-2" cx="345.26" cy="631.19" r="4"/><circle class="cls-2" cx="370.04" cy="638.07" r="4"/><circle class="cls-2" cx="377.3" cy="624.89" r="4"/><circle class="cls-2" cx="393.3" cy="642.07" r="4"/><circle class="cls-2" cx="386.05" cy="538.03" r="4"/><circle class="cls-2" cx="407.52" cy="546.13" r="4"/><circle class="cls-2" cx="421.64" cy="555.52" r="4"/><circle class="cls-2" cx="437.68" cy="579.91" r="4"/><circle class="cls-2" cx="420.99" cy="587.62" r="4"/><circle class="cls-2" cx="421.64" cy="607.81" r="4"/><circle class="cls-2" cx="404.84" cy="622.19" r="4"/><circle class="cls-2" cx="410.19" cy="643.07" r="4"/><circle class="cls-2" cx="422.81" cy="628" r="4"/><circle class="cls-2" cx="437.22" cy="615.52" r="4"/><circle class="cls-2" cx="438.05" cy="596.96" r="4"/><circle class="cls-2" cx="455" cy="593.74" r="4"/><circle class="cls-2" cx="466.21" cy="580.79" r="4"/><circle class="cls-2" cx="475.03" cy="601.19" r="4"/><circle class="cls-2" cx="456.55" cy="611.52" r="4"/><circle class="cls-2" cx="438.05" cy="634.07" r="4"/><circle class="cls-2" cx="476.71" cy="620.89" r="4"/><circle class="cls-2" cx="492.93" cy="607.81" r="4"/><circle cx="926.44" cy="549.33" r="19.67"/><path class="cls-3" d="M1090.78,424.56,828.11,308.11l251.7,134.67-6.37,12.89L810.33,308.11l177.14,178c-5.7,1.77-11.73,3.68-18,5.7L802.78,311.67l132.41,191.4q-7.35,2.46-15,5L781,288.56c1.42-.63,4.23-.54,7.09-.21a54,54,0,0,1,13.67,3.53l295.68,118.31Z"/></svg>